<svg id="visual" viewBox="0 0 1920 1080" width="1920" height="1080" xmlns="http://www.w3.org/2000/svg" xmlns:xlink="http://www.w3.org/1999/xlink" version="1.1"><rect x="0" y="0" width="1920" height="1080" fill="#411d28"></rect><defs><linearGradient id="grad1_0" x1="43.8%" y1="0%" x2="100%" y2="100%"><stop offset="14.444444444444446%" stop-color="#7b2544" stop-opacity="1"></stop><stop offset="85.55555555555554%" stop-color="#7b2544" stop-opacity="1"></stop></linearGradient></defs><defs><linearGradient id="grad1_1" x1="43.8%" y1="0%" x2="100%" y2="100%"><stop offset="14.444444444444446%" stop-color="#7b2544" stop-opacity="1"></stop><stop offset="85.55555555555554%" stop-color="#6f243e" stop-opacity="1"></stop></linearGradient></defs><defs><linearGradient id="grad1_2" x1="43.8%" y1="0%" x2="100%" y2="100%"><stop offset="14.444444444444446%" stop-color="#632339" stop-opacity="1"></stop><stop offset="85.55555555555554%" stop-color="#6f243e" stop-opacity="1"></stop></linearGradient></defs><defs><linearGradient id="grad1_3" x1="43.8%" y1="0%" x2="100%" y2="100%"><stop offset="14.444444444444446%" stop-color="#632339" stop-opacity="1"></stop><stop offset="85.55555555555554%" stop-color="#582133" stop-opacity="1"></stop></linearGradient></defs><defs><linearGradient id="grad1_4" x1="43.8%" y1="0%" x2="100%" y2="100%"><stop offset="14.444444444444446%" stop-color="#4c1f2d" stop-opacity="1"></stop><stop offset="85.55555555555554%" stop-color="#582133" stop-opacity="1"></stop></linearGradient></defs><defs><linearGradient id="grad1_5" x1="43.8%" y1="0%" x2="100%" y2="100%"><stop offset="14.444444444444446%" stop-color="#4c1f2d" stop-opacity="1"></stop><stop offset="85.55555555555554%" stop-color="#411d28" stop-opacity="1"></stop></linearGradient></defs><defs><linearGradient id="grad2_0" x1="0%" y1="0%" x2="56.3%" y2="100%"><stop offset="14.444444444444446%" stop-color="#7b2544" stop-opacity="1"></stop><stop offset="85.55555555555554%" stop-color="#7b2544" stop-opacity="1"></stop></linearGradient></defs><defs><linearGradient id="grad2_1" x1="0%" y1="0%" x2="56.3%" y2="100%"><stop offset="14.444444444444446%" stop-color="#6f243e" stop-opacity="1"></stop><stop offset="85.55555555555554%" stop-color="#7b2544" stop-opacity="1"></stop></linearGradient></defs><defs><linearGradient id="grad2_2" x1="0%" y1="0%" x2="56.3%" y2="100%"><stop offset="14.444444444444446%" stop-color="#6f243e" stop-opacity="1"></stop><stop offset="85.55555555555554%" stop-color="#632339" stop-opacity="1"></stop></linearGradient></defs><defs><linearGradient id="grad2_3" x1="0%" y1="0%" x2="56.3%" y2="100%"><stop offset="14.444444444444446%" stop-color="#582133" stop-opacity="1"></stop><stop offset="85.55555555555554%" stop-color="#632339" stop-opacity="1"></stop></linearGradient></defs><defs><linearGradient id="grad2_4" x1="0%" y1="0%" x2="56.3%" y2="100%"><stop offset="14.444444444444446%" stop-color="#582133" stop-opacity="1"></stop><stop offset="85.55555555555554%" stop-color="#4c1f2d" stop-opacity="1"></stop></linearGradient></defs><defs><linearGradient id="grad2_5" x1="0%" y1="0%" x2="56.3%" y2="100%"><stop offset="14.444444444444446%" stop-color="#411d28" stop-opacity="1"></stop><stop offset="85.55555555555554%" stop-color="#4c1f2d" stop-opacity="1"></stop></linearGradient></defs><g transform="translate(1920, 0)"><path d="M0 918C-102.2 913.4 -204.5 908.8 -279.4 859.8C-354.2 810.7 -401.8 717 -482.6 664.2C-563.4 611.4 -677.4 599.3 -742.7 539.6C-807.9 479.9 -824.4 372.6 -845.5 274.7C-866.6 176.8 -892.3 88.4 -918 0L0 0Z" fill="#471e2b"></path><path d="M0 765C-85.2 761.2 -170.4 757.4 -232.8 716.5C-295.2 675.6 -334.8 597.5 -402.1 553.5C-469.5 509.5 -564.5 499.4 -618.9 449.7C-673.3 399.9 -687 310.5 -704.6 228.9C-722.1 147.4 -743.6 73.7 -765 0L0 0Z" fill="#522030"></path><path d="M0 612C-68.2 608.9 -136.3 605.9 -186.2 573.2C-236.2 540.4 -267.9 478 -321.7 442.8C-375.6 407.6 -451.6 399.5 -495.1 359.7C-538.6 319.9 -549.6 248.4 -563.7 183.1C-577.7 117.9 -594.9 58.9 -612 0L0 0Z" fill="#5d2236"></path><path d="M0 459C-51.1 456.7 -102.2 454.4 -139.7 429.9C-177.1 405.3 -200.9 358.5 -241.3 332.1C-281.7 305.7 -338.7 299.6 -371.3 269.8C-404 239.9 -412.2 186.3 -422.7 137.4C-433.3 88.4 -446.1 44.2 -459 0L0 0Z" fill="#69233b"></path><path d="M0 306C-34.1 304.5 -68.2 302.9 -93.1 286.6C-118.1 270.2 -133.9 239 -160.9 221.4C-187.8 203.8 -225.8 199.8 -247.6 179.9C-269.3 160 -274.8 124.2 -281.8 91.6C-288.9 58.9 -297.4 29.5 -306 0L0 0Z" fill="#752441"></path><path d="M0 153C-17 152.2 -34.1 151.5 -46.6 143.3C-59 135.1 -67 119.5 -80.4 110.7C-93.9 101.9 -112.9 99.9 -123.8 89.9C-134.7 80 -137.4 62.1 -140.9 45.8C-144.4 29.5 -148.7 14.7 -153 0L0 0Z" fill="#7b2544"></path></g><g transform="translate(0, 1080)"><path d="M0 -918C101.9 -917.3 203.8 -916.7 283.7 -873.1C363.6 -829.5 421.6 -742.9 492 -677.1C562.4 -611.4 645.3 -566.4 682 -495.5C718.7 -424.6 709.2 -327.6 740.9 -240.7C772.5 -153.8 845.3 -76.9 918 0L0 0Z" fill="#471e2b"></path><path d="M0 -765C84.9 -764.4 169.8 -763.9 236.4 -727.6C303 -691.2 351.3 -619.1 410 -564.3C468.7 -509.5 537.7 -472 568.3 -412.9C598.9 -353.8 591 -273 617.4 -200.6C643.8 -128.2 704.4 -64.1 765 0L0 0Z" fill="#522030"></path><path d="M0 -612C67.9 -611.6 135.8 -611.1 189.1 -582C242.4 -553 281 -495.3 328 -451.4C374.9 -407.6 430.2 -377.6 454.7 -330.3C479.1 -283 472.8 -218.4 493.9 -160.5C515 -102.5 563.5 -51.3 612 0L0 0Z" fill="#5d2236"></path><path d="M0 -459C50.9 -458.7 101.9 -458.3 141.8 -436.5C181.8 -414.7 210.8 -371.5 246 -338.6C281.2 -305.7 322.6 -283.2 341 -247.8C359.4 -212.3 354.6 -163.8 370.4 -120.4C386.3 -76.9 422.6 -38.5 459 0L0 0Z" fill="#69233b"></path><path d="M0 -306C34 -305.8 67.9 -305.6 94.6 -291C121.2 -276.5 140.5 -247.6 164 -225.7C187.5 -203.8 215.1 -188.8 227.3 -165.2C239.6 -141.5 236.4 -109.2 247 -80.2C257.5 -51.3 281.8 -25.6 306 0L0 0Z" fill="#752441"></path><path d="M0 -153C17 -152.9 34 -152.8 47.3 -145.5C60.6 -138.2 70.3 -123.8 82 -112.9C93.7 -101.9 107.5 -94.4 113.7 -82.6C119.8 -70.8 118.2 -54.6 123.5 -40.1C128.8 -25.6 140.9 -12.8 153 0L0 0Z" fill="#7b2544"></path></g></svg>