<svg id="visual" viewBox="0 0 1920 1080" width="1920" height="1080" xmlns="http://www.w3.org/2000/svg" xmlns:xlink="http://www.w3.org/1999/xlink" version="1.1"><rect x="0" y="0" width="1920" height="1080" fill="#5b97c5"></rect><defs><linearGradient id="grad1_0" x1="43.8%" y1="0%" x2="100%" y2="100%"><stop offset="14.444444444444446%" stop-color="#25604b" stop-opacity="1"></stop><stop offset="85.55555555555554%" stop-color="#25604b" stop-opacity="1"></stop></linearGradient></defs><defs><linearGradient id="grad1_1" x1="43.8%" y1="0%" x2="100%" y2="100%"><stop offset="14.444444444444446%" stop-color="#25604b" stop-opacity="1"></stop><stop offset="85.55555555555554%" stop-color="#1c695c" stop-opacity="1"></stop></linearGradient></defs><defs><linearGradient id="grad1_2" x1="43.8%" y1="0%" x2="100%" y2="100%"><stop offset="14.444444444444446%" stop-color="#12726f" stop-opacity="1"></stop><stop offset="85.55555555555554%" stop-color="#1c695c" stop-opacity="1"></stop></linearGradient></defs><defs><linearGradient id="grad1_3" x1="43.8%" y1="0%" x2="100%" y2="100%"><stop offset="14.444444444444446%" stop-color="#12726f" stop-opacity="1"></stop><stop offset="85.55555555555554%" stop-color="#0c7b82" stop-opacity="1"></stop></linearGradient></defs><defs><linearGradient id="grad1_4" x1="43.8%" y1="0%" x2="100%" y2="100%"><stop offset="14.444444444444446%" stop-color="#158394" stop-opacity="1"></stop><stop offset="85.55555555555554%" stop-color="#0c7b82" stop-opacity="1"></stop></linearGradient></defs><defs><linearGradient id="grad1_5" x1="43.8%" y1="0%" x2="100%" y2="100%"><stop offset="14.444444444444446%" stop-color="#158394" stop-opacity="1"></stop><stop offset="85.55555555555554%" stop-color="#298aa6" stop-opacity="1"></stop></linearGradient></defs><defs><linearGradient id="grad1_6" x1="43.8%" y1="0%" x2="100%" y2="100%"><stop offset="14.444444444444446%" stop-color="#4191b7" stop-opacity="1"></stop><stop offset="85.55555555555554%" stop-color="#298aa6" stop-opacity="1"></stop></linearGradient></defs><defs><linearGradient id="grad1_7" x1="43.8%" y1="0%" x2="100%" y2="100%"><stop offset="14.444444444444446%" stop-color="#4191b7" stop-opacity="1"></stop><stop offset="85.55555555555554%" stop-color="#5b97c5" stop-opacity="1"></stop></linearGradient></defs><defs><linearGradient id="grad2_0" x1="0%" y1="0%" x2="56.3%" y2="100%"><stop offset="14.444444444444446%" stop-color="#25604b" stop-opacity="1"></stop><stop offset="85.55555555555554%" stop-color="#25604b" stop-opacity="1"></stop></linearGradient></defs><defs><linearGradient id="grad2_1" x1="0%" y1="0%" x2="56.3%" y2="100%"><stop offset="14.444444444444446%" stop-color="#1c695c" stop-opacity="1"></stop><stop offset="85.55555555555554%" stop-color="#25604b" stop-opacity="1"></stop></linearGradient></defs><defs><linearGradient id="grad2_2" x1="0%" y1="0%" x2="56.3%" y2="100%"><stop offset="14.444444444444446%" stop-color="#1c695c" stop-opacity="1"></stop><stop offset="85.55555555555554%" stop-color="#12726f" stop-opacity="1"></stop></linearGradient></defs><defs><linearGradient id="grad2_3" x1="0%" y1="0%" x2="56.3%" y2="100%"><stop offset="14.444444444444446%" stop-color="#0c7b82" stop-opacity="1"></stop><stop offset="85.55555555555554%" stop-color="#12726f" stop-opacity="1"></stop></linearGradient></defs><defs><linearGradient id="grad2_4" x1="0%" y1="0%" x2="56.3%" y2="100%"><stop offset="14.444444444444446%" stop-color="#0c7b82" stop-opacity="1"></stop><stop offset="85.55555555555554%" stop-color="#158394" stop-opacity="1"></stop></linearGradient></defs><defs><linearGradient id="grad2_5" x1="0%" y1="0%" x2="56.3%" y2="100%"><stop offset="14.444444444444446%" stop-color="#298aa6" stop-opacity="1"></stop><stop offset="85.55555555555554%" stop-color="#158394" stop-opacity="1"></stop></linearGradient></defs><defs><linearGradient id="grad2_6" x1="0%" y1="0%" x2="56.3%" y2="100%"><stop offset="14.444444444444446%" stop-color="#298aa6" stop-opacity="1"></stop><stop offset="85.55555555555554%" stop-color="#4191b7" stop-opacity="1"></stop></linearGradient></defs><defs><linearGradient id="grad2_7" x1="0%" y1="0%" x2="56.3%" y2="100%"><stop offset="14.444444444444446%" stop-color="#5b97c5" stop-opacity="1"></stop><stop offset="85.55555555555554%" stop-color="#4191b7" stop-opacity="1"></stop></linearGradient></defs><g transform="translate(1920, 0)"><path d="M0 1080C-93.1 1028.6 -186.2 977.3 -240.4 897.3C-294.7 817.4 -310 708.9 -405 701.5C-500 694.1 -674.7 787.9 -763.7 763.7C-852.7 739.5 -856.1 597.2 -845.2 488C-834.4 378.8 -809.4 302.6 -846.2 226.7C-882.9 150.9 -981.5 75.4 -1080 0L0 0Z" fill="#4e94be"></path><path d="M0 945C-81.5 900.1 -162.9 855.1 -210.4 785.2C-257.8 715.2 -271.3 620.2 -354.4 613.8C-437.5 607.3 -590.3 689.4 -668.2 668.2C-746.1 647 -749.1 522.6 -739.6 427C-730.1 331.4 -708.2 264.7 -740.4 198.4C-772.5 132 -858.8 66 -945 0L0 0Z" fill="#358eaf"></path><path d="M0 810C-69.8 771.5 -139.7 733 -180.3 673C-221 613 -232.5 531.6 -303.7 526.1C-375 520.6 -506 590.9 -572.8 572.8C-639.5 554.6 -642 447.9 -633.9 366C-625.8 284.1 -607 226.9 -634.6 170C-662.2 113.2 -736.1 56.6 -810 0L0 0Z" fill="#1f879d"></path><path d="M0 675C-58.2 642.9 -116.4 610.8 -150.3 560.8C-184.2 510.9 -193.8 443 -253.1 438.4C-312.5 433.8 -421.7 492.4 -477.3 477.3C-532.9 462.2 -535 373.3 -528.3 305C-521.5 236.7 -505.9 189.1 -528.8 141.7C-551.8 94.3 -613.4 47.2 -675 0L0 0Z" fill="#0f7f8b"></path><path d="M0 540C-46.6 514.3 -93.1 488.6 -120.2 448.7C-147.3 408.7 -155 354.4 -202.5 350.7C-250 347.1 -337.3 393.9 -381.8 381.8C-426.3 369.7 -428 298.6 -422.6 244C-417.2 189.4 -404.7 151.3 -423.1 113.4C-441.5 75.4 -490.7 37.7 -540 0L0 0Z" fill="#0e7678"></path><path d="M0 405C-34.9 385.7 -69.8 366.5 -90.2 336.5C-110.5 306.5 -116.3 265.8 -151.9 263.1C-187.5 260.3 -253 295.5 -286.4 286.4C-319.8 277.3 -321 224 -317 183C-312.9 142 -303.5 113.5 -317.3 85C-331.1 56.6 -368 28.3 -405 0L0 0Z" fill="#176e66"></path><path d="M0 270C-23.3 257.2 -46.6 244.3 -60.1 224.3C-73.7 204.3 -77.5 177.2 -101.2 175.4C-125 173.5 -168.7 197 -190.9 190.9C-213.2 184.9 -214 149.3 -211.3 122C-208.6 94.7 -202.3 75.6 -211.5 56.7C-220.7 37.7 -245.4 18.9 -270 0L0 0Z" fill="#216554"></path><path d="M0 135C-11.6 128.6 -23.3 122.2 -30.1 112.2C-36.8 102.2 -38.8 88.6 -50.6 87.7C-62.5 86.8 -84.3 98.5 -95.5 95.5C-106.6 92.4 -107 74.7 -105.7 61C-104.3 47.3 -101.2 37.8 -105.8 28.3C-110.4 18.9 -122.7 9.4 -135 0L0 0Z" fill="#25604b"></path></g><g transform="translate(0, 1080)"><path d="M0 -1080C115.2 -1114.1 230.5 -1148.2 279.5 -1043.2C328.6 -938.2 311.4 -694 349.5 -605.4C387.6 -516.7 481.1 -583.6 607.4 -607.4C733.7 -631.2 892.8 -612 934.4 -539.5C976.1 -467 900.4 -341.3 905.1 -242.5C909.8 -143.7 994.9 -71.9 1080 0L0 0Z" fill="#4e94be"></path><path d="M0 -945C100.8 -974.9 201.7 -1004.7 244.6 -912.8C287.5 -820.9 272.4 -607.2 305.8 -529.7C339.2 -452.1 421 -510.6 531.5 -531.5C642 -552.3 781.2 -535.5 817.6 -472.1C854.1 -408.6 787.8 -298.6 791.9 -212.2C796 -125.8 870.5 -62.9 945 0L0 0Z" fill="#358eaf"></path><path d="M0 -810C86.4 -835.6 172.9 -861.2 209.6 -782.4C246.4 -703.6 233.5 -520.5 262.1 -454C290.7 -387.5 360.8 -437.7 455.6 -455.6C550.3 -473.4 669.6 -459 700.8 -404.6C732.1 -350.3 675.3 -256 678.8 -181.9C682.3 -107.8 746.2 -53.9 810 0L0 0Z" fill="#1f879d"></path><path d="M0 -675C72 -696.3 144.1 -717.6 174.7 -652C205.3 -586.4 194.6 -433.7 218.4 -378.3C242.3 -322.9 300.7 -364.7 379.6 -379.6C458.6 -394.5 558 -382.5 584 -337.2C610.1 -291.9 562.7 -213.3 565.7 -151.6C568.6 -89.8 621.8 -44.9 675 0L0 0Z" fill="#0f7f8b"></path><path d="M0 -540C57.6 -557.1 115.2 -574.1 139.8 -521.6C164.3 -469.1 155.7 -347 174.7 -302.7C193.8 -258.4 240.6 -291.8 303.7 -303.7C366.8 -315.6 446.4 -306 467.2 -269.8C488.1 -233.5 450.2 -170.7 452.5 -121.3C454.9 -71.9 497.4 -35.9 540 0L0 0Z" fill="#0e7678"></path><path d="M0 -405C43.2 -417.8 86.4 -430.6 104.8 -391.2C123.2 -351.8 116.8 -260.2 131.1 -227C145.4 -193.8 180.4 -218.8 227.8 -227.8C275.1 -236.7 334.8 -229.5 350.4 -202.3C366 -175.1 337.6 -128 339.4 -90.9C341.2 -53.9 373.1 -26.9 405 0L0 0Z" fill="#176e66"></path><path d="M0 -270C28.8 -278.5 57.6 -287.1 69.9 -260.8C82.1 -234.5 77.8 -173.5 87.4 -151.3C96.9 -129.2 120.3 -145.9 151.9 -151.9C183.4 -157.8 223.2 -153 233.6 -134.9C244 -116.8 225.1 -85.3 226.3 -60.6C227.4 -35.9 248.7 -18 270 0L0 0Z" fill="#216554"></path><path d="M0 -135C14.4 -139.3 28.8 -143.5 34.9 -130.4C41.1 -117.3 38.9 -86.7 43.7 -75.7C48.5 -64.6 60.1 -72.9 75.9 -75.9C91.7 -78.9 111.6 -76.5 116.8 -67.4C122 -58.4 112.5 -42.7 113.1 -30.3C113.7 -18 124.4 -9 135 0L0 0Z" fill="#25604b"></path></g></svg>