<svg id="visual" viewBox="0 0 1920 1080" width="1920" height="1080" xmlns="http://www.w3.org/2000/svg" xmlns:xlink="http://www.w3.org/1999/xlink" version="1.1"><rect x="0" y="0" width="1920" height="1080" fill="#593591"></rect><defs><linearGradient id="grad1_0" x1="43.8%" y1="0%" x2="100%" y2="100%"><stop offset="14.444444444444446%" stop-color="#e8a0e3" stop-opacity="1"></stop><stop offset="85.55555555555554%" stop-color="#e8a0e3" stop-opacity="1"></stop></linearGradient></defs><defs><linearGradient id="grad1_1" x1="43.8%" y1="0%" x2="100%" y2="100%"><stop offset="14.444444444444446%" stop-color="#e8a0e3" stop-opacity="1"></stop><stop offset="85.55555555555554%" stop-color="#d58fd7" stop-opacity="1"></stop></linearGradient></defs><defs><linearGradient id="grad1_2" x1="43.8%" y1="0%" x2="100%" y2="100%"><stop offset="14.444444444444446%" stop-color="#c17fcb" stop-opacity="1"></stop><stop offset="85.55555555555554%" stop-color="#d58fd7" stop-opacity="1"></stop></linearGradient></defs><defs><linearGradient id="grad1_3" x1="43.8%" y1="0%" x2="100%" y2="100%"><stop offset="14.444444444444446%" stop-color="#c17fcb" stop-opacity="1"></stop><stop offset="85.55555555555554%" stop-color="#ad6fbf" stop-opacity="1"></stop></linearGradient></defs><defs><linearGradient id="grad1_4" x1="43.8%" y1="0%" x2="100%" y2="100%"><stop offset="14.444444444444446%" stop-color="#995fb3" stop-opacity="1"></stop><stop offset="85.55555555555554%" stop-color="#ad6fbf" stop-opacity="1"></stop></linearGradient></defs><defs><linearGradient id="grad1_5" x1="43.8%" y1="0%" x2="100%" y2="100%"><stop offset="14.444444444444446%" stop-color="#995fb3" stop-opacity="1"></stop><stop offset="85.55555555555554%" stop-color="#8451a8" stop-opacity="1"></stop></linearGradient></defs><defs><linearGradient id="grad1_6" x1="43.8%" y1="0%" x2="100%" y2="100%"><stop offset="14.444444444444446%" stop-color="#6f429c" stop-opacity="1"></stop><stop offset="85.55555555555554%" stop-color="#8451a8" stop-opacity="1"></stop></linearGradient></defs><defs><linearGradient id="grad1_7" x1="43.8%" y1="0%" x2="100%" y2="100%"><stop offset="14.444444444444446%" stop-color="#6f429c" stop-opacity="1"></stop><stop offset="85.55555555555554%" stop-color="#593591" stop-opacity="1"></stop></linearGradient></defs><defs><linearGradient id="grad2_0" x1="0%" y1="0%" x2="56.3%" y2="100%"><stop offset="14.444444444444446%" stop-color="#e8a0e3" stop-opacity="1"></stop><stop offset="85.55555555555554%" stop-color="#e8a0e3" stop-opacity="1"></stop></linearGradient></defs><defs><linearGradient id="grad2_1" x1="0%" y1="0%" x2="56.3%" y2="100%"><stop offset="14.444444444444446%" stop-color="#d58fd7" stop-opacity="1"></stop><stop offset="85.55555555555554%" stop-color="#e8a0e3" stop-opacity="1"></stop></linearGradient></defs><defs><linearGradient id="grad2_2" x1="0%" y1="0%" x2="56.3%" y2="100%"><stop offset="14.444444444444446%" stop-color="#d58fd7" stop-opacity="1"></stop><stop offset="85.55555555555554%" stop-color="#c17fcb" stop-opacity="1"></stop></linearGradient></defs><defs><linearGradient id="grad2_3" x1="0%" y1="0%" x2="56.3%" y2="100%"><stop offset="14.444444444444446%" stop-color="#ad6fbf" stop-opacity="1"></stop><stop offset="85.55555555555554%" stop-color="#c17fcb" stop-opacity="1"></stop></linearGradient></defs><defs><linearGradient id="grad2_4" x1="0%" y1="0%" x2="56.3%" y2="100%"><stop offset="14.444444444444446%" stop-color="#ad6fbf" stop-opacity="1"></stop><stop offset="85.55555555555554%" stop-color="#995fb3" stop-opacity="1"></stop></linearGradient></defs><defs><linearGradient id="grad2_5" x1="0%" y1="0%" x2="56.3%" y2="100%"><stop offset="14.444444444444446%" stop-color="#8451a8" stop-opacity="1"></stop><stop offset="85.55555555555554%" stop-color="#995fb3" stop-opacity="1"></stop></linearGradient></defs><defs><linearGradient id="grad2_6" x1="0%" y1="0%" x2="56.3%" y2="100%"><stop offset="14.444444444444446%" stop-color="#8451a8" stop-opacity="1"></stop><stop offset="85.55555555555554%" stop-color="#6f429c" stop-opacity="1"></stop></linearGradient></defs><defs><linearGradient id="grad2_7" x1="0%" y1="0%" x2="56.3%" y2="100%"><stop offset="14.444444444444446%" stop-color="#593591" stop-opacity="1"></stop><stop offset="85.55555555555554%" stop-color="#6f429c" stop-opacity="1"></stop></linearGradient></defs><g transform="translate(1920, 0)"><path d="M0 1080C-84.4 1022.1 -168.8 964.2 -248.5 927.3C-328.2 890.3 -403.1 874.3 -488.5 846.1C-573.9 817.9 -669.6 777.5 -698.6 698.6C-727.6 619.8 -689.8 502.5 -750.8 433.5C-811.9 364.5 -971.9 343.7 -1043.2 279.5C-1114.5 215.3 -1097.3 107.7 -1080 0L0 0Z" fill="#643c97"></path><path d="M0 945C-73.8 894.4 -147.7 843.7 -217.4 811.4C-287.1 779 -352.7 765 -427.4 740.3C-502.1 715.7 -585.9 680.3 -611.3 611.3C-636.6 542.3 -603.6 439.7 -657 379.3C-710.4 318.9 -850.4 300.8 -912.8 244.6C-975.2 188.4 -960.1 94.2 -945 0L0 0Z" fill="#7a49a2"></path><path d="M0 810C-63.3 766.6 -126.6 723.2 -186.3 695.5C-246.1 667.8 -302.3 655.7 -366.4 634.6C-430.4 613.4 -502.2 583.1 -524 524C-545.7 464.8 -517.3 376.9 -563.1 325.1C-608.9 273.4 -728.9 257.8 -782.4 209.6C-835.9 161.5 -823 80.7 -810 0L0 0Z" fill="#8f58ad"></path><path d="M0 675C-52.7 638.8 -105.5 602.6 -155.3 579.6C-205.1 556.5 -252 546.5 -305.3 528.8C-358.7 511.2 -418.5 485.9 -436.6 436.6C-454.7 387.4 -431.1 314.1 -469.3 270.9C-507.4 227.8 -607.4 214.8 -652 174.7C-696.6 134.6 -685.8 67.3 -675 0L0 0Z" fill="#a367b9"></path><path d="M0 540C-42.2 511.1 -84.4 482.1 -124.2 463.6C-164.1 445.2 -201.6 437.2 -244.2 423.1C-286.9 408.9 -334.8 388.7 -349.3 349.3C-363.8 309.9 -344.9 251.3 -375.4 216.8C-406 182.2 -485.9 171.9 -521.6 139.8C-557.3 107.7 -548.6 53.8 -540 0L0 0Z" fill="#b777c5"></path><path d="M0 405C-31.6 383.3 -63.3 361.6 -93.2 347.7C-123.1 333.9 -151.2 327.9 -183.2 317.3C-215.2 306.7 -251.1 291.5 -262 262C-272.8 232.4 -258.7 188.4 -281.6 162.6C-304.5 136.7 -364.4 128.9 -391.2 104.8C-418 80.7 -411.5 40.4 -405 0L0 0Z" fill="#cb87d1"></path><path d="M0 270C-21.1 255.5 -42.2 241.1 -62.1 231.8C-82 222.6 -100.8 218.6 -122.1 211.5C-143.5 204.5 -167.4 194.4 -174.7 174.7C-181.9 154.9 -172.4 125.6 -187.7 108.4C-203 91.1 -243 85.9 -260.8 69.9C-278.6 53.8 -274.3 26.9 -270 0L0 0Z" fill="#de98dd"></path><path d="M0 135C-10.5 127.8 -21.1 120.5 -31.1 115.9C-41 111.3 -50.4 109.3 -61.1 105.8C-71.7 102.2 -83.7 97.2 -87.3 87.3C-90.9 77.5 -86.2 62.8 -93.9 54.2C-101.5 45.6 -121.5 43 -130.4 34.9C-139.3 26.9 -137.2 13.5 -135 0L0 0Z" fill="#e8a0e3"></path></g><g transform="translate(0, 1080)"><path d="M0 -1080C65.3 -970.5 130.6 -861 229.3 -855.8C328.1 -850.6 460.3 -949.8 540 -935.3C619.7 -920.8 647 -792.5 705 -705C762.9 -617.5 851.6 -570.6 848.7 -490C845.8 -409.4 751.4 -294.9 774.7 -207.6C798 -120.3 939 -60.1 1080 0L0 0Z" fill="#643c97"></path><path d="M0 -945C57.1 -849.2 114.2 -753.4 200.6 -748.8C287 -744.3 402.7 -831.1 472.5 -818.4C542.3 -805.7 566.1 -693.5 616.9 -616.9C667.6 -540.3 745.1 -499.3 742.6 -428.8C740.1 -358.2 657.5 -258 677.8 -181.6C698.2 -105.2 821.6 -52.6 945 0L0 0Z" fill="#7a49a2"></path><path d="M0 -810C49 -727.9 97.9 -645.7 172 -641.9C246 -638 345.2 -712.4 405 -701.5C464.8 -690.6 485.3 -594.4 528.7 -528.7C572.2 -463.1 638.7 -428 636.5 -367.5C634.4 -307 563.5 -221.2 581 -155.7C598.5 -90.2 704.2 -45.1 810 0L0 0Z" fill="#8f58ad"></path><path d="M0 -675C40.8 -606.6 81.6 -538.1 143.3 -534.9C205 -531.7 287.7 -593.7 337.5 -584.6C387.3 -575.5 404.4 -495.3 440.6 -440.6C476.8 -385.9 532.2 -356.7 530.4 -306.3C528.6 -255.8 469.6 -184.3 484.2 -129.7C498.7 -75.2 586.9 -37.6 675 0L0 0Z" fill="#a367b9"></path><path d="M0 -540C32.6 -485.2 65.3 -430.5 114.7 -427.9C164 -425.3 230.1 -474.9 270 -467.7C309.9 -460.4 323.5 -396.3 352.5 -352.5C381.5 -308.7 425.8 -285.3 424.4 -245C422.9 -204.7 375.7 -147.4 387.3 -103.8C399 -60.1 469.5 -30.1 540 0L0 0Z" fill="#b777c5"></path><path d="M0 -405C24.5 -363.9 49 -322.9 86 -320.9C123 -319 172.6 -356.2 202.5 -350.7C232.4 -345.3 242.6 -297.2 264.4 -264.4C286.1 -231.5 319.3 -214 318.3 -183.8C317.2 -153.5 281.8 -110.6 290.5 -77.8C299.2 -45.1 352.1 -22.6 405 0L0 0Z" fill="#cb87d1"></path><path d="M0 -270C16.3 -242.6 32.6 -215.2 57.3 -214C82 -212.7 115.1 -237.5 135 -233.8C154.9 -230.2 161.8 -198.1 176.2 -176.2C190.7 -154.4 212.9 -142.7 212.2 -122.5C211.5 -102.3 187.8 -73.7 193.7 -51.9C199.5 -30.1 234.7 -15 270 0L0 0Z" fill="#de98dd"></path><path d="M0 -135C8.2 -121.3 16.3 -107.6 28.7 -107C41 -106.3 57.5 -118.7 67.5 -116.9C77.5 -115.1 80.9 -99.1 88.1 -88.1C95.4 -77.2 106.4 -71.3 106.1 -61.3C105.7 -51.2 93.9 -36.9 96.8 -25.9C99.7 -15 117.4 -7.5 135 0L0 0Z" fill="#e8a0e3"></path></g></svg>